<svg width="387" height="65" viewBox="0 0 387 65" fill="none" xmlns="http://www.w3.org/2000/svg">
<path d="M33.0415 0.271992L60.7215 46.7264L4.5887 46.2571L33.0415 0.271992Z" fill="#077644"/>
<mask id="mask0" mask-type="alpha" maskUnits="userSpaceOnUse" x="4" y="0" width="57" height="47">
<path d="M32.9234 0.270937L60.6035 46.7253L4.47062 46.2561L32.9234 0.270937Z" fill="#C4C4C4"/>
</mask>
<g mask="url(#mask0)">
<rect x="32.9233" y="0.270996" width="27.6521" height="46.2214" transform="rotate(0.478988 32.9233 0.270996)" fill="#E0A4BA"/>
</g>
<ellipse cx="89.5192" cy="23.8554" rx="22.3001" ry="23.1107" transform="rotate(0.478988 89.5192 23.8554)" fill="#C4C4C4"/>
<mask id="mask1" mask-type="alpha" maskUnits="userSpaceOnUse" x="67" y="0" width="45" height="47">
<ellipse cx="89.5192" cy="23.8554" rx="22.3001" ry="23.1107" transform="rotate(0.478988 89.5192 23.8554)" fill="#362929"/>
</mask>
<g mask="url(#mask1)">
<rect x="90.7034" y="24.4817" width="21.1107" height="22.4944" transform="rotate(0.478988 90.7034 24.4817)" fill="#3038FF"/>
</g>
<mask id="mask2" mask-type="alpha" maskUnits="userSpaceOnUse" x="68" y="0" width="44" height="48">
<ellipse rx="23.1076" ry="21.8275" transform="matrix(0.00519672 -0.999987 0.999989 0.00471345 90.0108 23.9358)" fill="#362929"/>
</mask>
<g mask="url(#mask2)">
<rect width="24.3252" height="21.2456" transform="matrix(0.00519673 -0.999987 0.999989 0.00471345 90.5842 25.1562)" fill="#077644"/>
</g>
<mask id="mask3" mask-type="alpha" maskUnits="userSpaceOnUse" x="67" y="0" width="45" height="47">
<ellipse rx="23.16" ry="22.3008" transform="matrix(-0.00735442 0.999973 -0.999974 -0.00720043 89.4957 23.78)" fill="#E0A4BA"/>
</mask>
<g mask="url(#mask3)">
<rect width="21.6017" height="23.8278" transform="matrix(-0.00735442 0.999973 -0.999974 -0.00720044 91.062 25.0945)" fill="#E0A4BA"/>
</g>
<mask id="mask4" mask-type="alpha" maskUnits="userSpaceOnUse" x="67" y="0" width="45" height="47">
<ellipse rx="22.1545" ry="22.9143" transform="matrix(-0.999946 -0.0103581 0.0100846 -0.999949 89.3941 23.7007)" fill="#3038FF"/>
</mask>
<g mask="url(#mask4)">
<rect width="23.333" height="24.0978" transform="matrix(-0.999946 -0.0103581 0.0100846 -0.999949 90.5884 24.8982)" fill="#3038FF"/>
</g>
<path d="M160.391 34.9578L147.968 34.8001L144.406 46.0723L140.116 46.0178L154.72 1.3504L154.988 1.3538L168.624 46.3797L163.62 46.3162L160.391 34.9578ZM158.97 29.9362L154.537 14.1547L149.586 29.8171L158.97 29.9362Z" fill="#3038FF"/>
<path d="M192.448 46.6822L185.024 30.6839C184.785 30.7206 184.427 30.7359 183.951 30.7299L179.169 30.6692L178.998 46.5114L174.664 46.4564L175.129 3.39645L183.753 3.50594C185.957 3.53392 187.918 4.07504 189.635 5.12931C191.351 6.18357 192.69 7.72941 193.651 9.76684C194.613 11.7646 195.078 14.173 195.048 16.992C195.019 19.6522 194.546 22.0884 193.628 24.3005C192.74 26.513 191.382 28.1835 189.552 29.3119L197.497 46.7463L192.448 46.6822ZM183.922 25.1304C186.245 25.1599 187.922 24.3671 188.953 22.752C190.013 21.1374 190.554 19.2779 190.577 17.1735C190.591 15.9029 190.381 14.6494 189.947 13.4129C189.544 12.1767 188.869 11.1556 187.925 10.3494C187.01 9.50384 185.838 9.072 184.408 9.05384L179.404 8.99031L179.23 25.0708L183.922 25.1304Z" fill="#3038FF"/>
<path d="M208.962 3.82596L208.497 46.8859L204.162 46.8309L204.627 3.77094L208.962 3.82596Z" fill="#3038FF"/>
<path d="M234.834 35.9028L222.412 35.7451L218.849 47.0173L214.56 46.9629L229.164 2.29547L229.432 2.29887L243.068 47.3248L238.063 47.2613L234.834 35.9028ZM233.414 30.8813L228.981 15.0997L224.03 30.7622L233.414 30.8813Z" fill="#3038FF"/>
<path d="M261.467 26.0552C261.51 22.1245 262.294 18.4811 263.82 15.1251C265.346 11.769 267.371 9.11431 269.894 7.16083C272.448 5.16803 275.215 4.19053 278.194 4.22835C281.143 4.26579 283.872 5.31306 286.382 7.37015C288.893 9.38754 290.875 12.0931 292.328 15.487C293.811 18.8812 294.531 22.5437 294.488 26.4744C294.446 30.4449 293.661 34.1082 292.135 37.4642C290.609 40.8202 288.555 43.4746 285.971 45.4273C283.418 47.3407 280.667 48.2787 277.718 48.2412C274.739 48.2034 271.994 47.1956 269.483 45.218C266.972 43.2403 264.99 40.5744 263.536 37.2203C262.113 33.8268 261.424 30.1051 261.467 26.0552ZM265.935 26.1715C265.903 29.1097 266.41 31.8363 267.455 34.3513C268.501 36.8663 269.939 38.8701 271.77 40.3626C273.631 41.8555 275.664 42.616 277.868 42.644C280.072 42.6719 282.091 41.9828 283.923 40.5765C285.786 39.1308 287.252 37.1639 288.322 34.6758C289.422 32.1483 289.988 29.3956 290.02 26.4177C290.052 23.4399 289.546 20.6736 288.501 18.1188C287.456 15.5641 286.018 13.5405 284.187 12.048C282.356 10.5554 280.338 9.79517 278.134 9.76718C275.929 9.7392 273.896 10.4679 272.032 11.9532C270.17 13.3988 268.688 15.3854 267.588 17.9129C266.518 20.4408 265.967 23.1937 265.935 26.1715Z" fill="#3038FF"/>
<path d="M318.652 12.9025C317.5 12.0539 316.271 11.3632 314.965 10.8304C313.66 10.2976 312.427 10.0238 311.265 10.0091C309.507 9.98678 308.102 10.505 307.047 11.5638C306.023 12.5833 305.502 14.0062 305.482 15.8327C305.463 17.6194 306.042 19.096 307.222 20.2626C308.431 21.3898 310.147 22.5235 312.369 23.6636C314.028 24.4789 315.419 25.3702 316.541 26.3374C317.693 27.2654 318.632 28.5679 319.359 30.245C320.116 31.8827 320.48 33.9721 320.453 36.5132C320.428 38.8161 319.974 40.8952 319.09 42.7503C318.206 44.6055 316.953 46.0589 315.333 47.1105C313.743 48.1625 311.875 48.6748 309.73 48.6476C307.735 48.6223 305.818 48.181 303.98 47.3237C302.142 46.4268 300.531 45.3143 299.145 43.9863L301.116 39.4247C302.206 40.5505 303.521 41.5202 305.062 42.334C306.602 43.108 308.043 43.5036 309.384 43.5206C311.111 43.5425 312.622 42.966 313.916 41.7912C315.24 40.6166 315.914 38.8581 315.939 36.5155C315.961 34.5303 315.427 32.9549 314.337 31.7895C313.277 30.5847 311.77 29.4537 309.815 28.3964C308.008 27.4601 306.498 26.5475 305.286 25.6585C304.104 24.7698 303.089 23.5657 302.242 22.0459C301.395 20.4864 300.983 18.5553 301.008 16.2524C301.045 12.8775 301.953 10.1688 303.733 8.1265C305.543 6.04484 307.864 4.96241 310.695 4.87922C314.18 4.92346 317.4 6.11594 320.354 8.45664L318.652 12.9025Z" fill="#3038FF"/>
<path d="M332.365 5.39259L331.961 42.8541L348.404 43.0629L348.344 48.6613L327.566 48.3975L328.031 5.33756L332.365 5.39259Z" fill="#3038FF"/>
<path d="M353.016 27.2175C353.059 23.2867 353.843 19.6433 355.369 16.2873C356.895 12.9313 358.92 10.2765 361.443 8.32306C363.997 6.33025 366.764 5.35276 369.743 5.39058C372.692 5.42802 375.421 6.47528 377.932 8.53238C380.442 10.5498 382.424 13.2554 383.877 16.6492C385.36 20.0434 386.08 23.7059 386.037 27.6367C385.995 31.6072 385.21 35.2704 383.684 38.6264C382.158 41.9824 380.104 44.6368 377.52 46.5895C374.967 48.5029 372.216 49.4409 369.267 49.4034C366.288 49.3656 363.543 48.3579 361.032 46.3802C358.521 44.4025 356.539 41.7366 355.085 38.3825C353.662 34.989 352.973 31.2674 353.016 27.2175ZM357.484 27.3338C357.452 30.2719 357.959 32.9985 359.005 35.5135C360.05 38.0286 361.488 40.0323 363.319 41.5249C365.18 43.0178 367.213 43.7782 369.417 43.8062C371.621 43.8342 373.64 43.145 375.472 41.7387C377.335 40.2931 378.801 38.3262 379.871 35.838C380.971 33.3105 381.537 30.5578 381.569 27.5799C381.601 24.6021 381.095 21.8358 380.05 19.2811C379.005 16.7263 377.567 14.7027 375.736 13.2102C373.905 11.7177 371.887 10.9574 369.683 10.9294C367.478 10.9014 365.445 11.6301 363.581 13.1154C361.719 14.5611 360.237 16.5476 359.137 19.0751C358.067 21.603 357.516 24.3559 357.484 27.3338Z" fill="#3038FF"/>
</svg>
